<svg width="1200" height="301" viewBox="0 0 1200 301" fill="none" xmlns="http://www.w3.org/2000/svg">
<g opacity="0.2">
<path d="M409 9L694.593 191.819L928.339 19.3757L1198 60.7104L1023.13 212.809L575.66 236.383L260 295L520.903 75.5651L678.107 7.75027L914.208 198.601L1023.13 289.343L706.958 266.415L686.35 198.601L427.876 191.819L340.148 255.759L66.5 208L340.148 148.547L325.428 66.8461L1 123.5L27 295L666.921 47.4704L914.208 0L1130.29 177.61L427.876 172.443" stroke="#95CD48"/>
<path d="M409.035 8.71906L368.998 175.027L181.177 52.6372L557.996 27.1259L907.731 300L573.893 287.406L429.642 175.027" stroke="#95CD48"/>
</g>
</svg>
