<svg width="35" height="28" viewBox="0 0 35 28" fill="none" xmlns="http://www.w3.org/2000/svg">
<path d="M33.75 0.25H1.25C0.558594 0.25 0 0.808594 0 1.5V26.5C0 27.1914 0.558594 27.75 1.25 27.75H33.75C34.4414 27.75 35 27.1914 35 26.5V1.5C35 0.808594 34.4414 0.25 33.75 0.25ZM32.1875 4.57812V24.9375H2.8125V4.57812L1.73438 3.73828L3.26953 1.76563L4.94141 3.06641H30.0625L31.7344 1.76563L33.2695 3.73828L32.1875 4.57812ZM30.0625 3.0625L17.5 12.8281L4.9375 3.0625L3.26563 1.76172L1.73047 3.73438L2.80859 4.57422L16.1523 14.9492C16.5361 15.2473 17.0082 15.4092 17.4941 15.4092C17.9801 15.4092 18.4522 15.2473 18.8359 14.9492L32.1875 4.57812L33.2656 3.73828L31.7305 1.76563L30.0625 3.0625Z" fill="#76CE37"/>
</svg>
