<svg width="30" height="30" viewBox="0 0 30 30" fill="none" xmlns="http://www.w3.org/2000/svg">
<path d="M3.378 12C3.12623 12.9801 2.99923 13.9881 3 15C3 16.035 3.132 17.04 3.378 18H7.65C7.44777 16.0051 7.44777 13.9949 7.65 12H3.378ZM4.605 9H8.124C8.523 7.1745 9.099 5.5395 9.8055 4.179C7.62777 5.22813 5.81582 6.90785 4.605 9ZM26.622 12H22.35C22.5522 13.9949 22.5522 16.0051 22.35 18H26.622C27.127 16.0319 27.127 13.9681 26.622 12ZM25.395 9C24.1842 6.90785 22.3722 5.22813 20.1945 4.179C20.9025 5.5395 21.477 7.1745 21.876 9H25.395ZM10.668 12C10.5556 12.996 10.4995 13.9976 10.5 15C10.5 16.0275 10.557 17.0325 10.668 18H19.332C19.5579 16.0064 19.5579 13.9936 19.332 12H10.668ZM11.205 9H18.795C18.522 7.87245 18.1282 6.77762 17.6205 5.7345C16.6785 3.852 15.6705 3 15 3C14.328 3 13.3215 3.852 12.3795 5.7345C11.907 6.6825 11.5095 7.785 11.205 9ZM4.605 21C5.81582 23.0921 7.62777 24.7719 9.8055 25.821C9.0975 24.4605 8.523 22.8255 8.124 21H4.605ZM25.395 21H21.876C21.477 22.8255 20.901 24.4605 20.1945 25.821C22.3722 24.7719 24.1842 23.0921 25.395 21ZM11.205 21C11.5095 22.215 11.907 23.3175 12.3795 24.2655C13.3215 26.148 14.3295 27 15 27C15.672 27 16.6785 26.148 17.6205 24.2655C18.093 23.3175 18.4905 22.215 18.795 21H11.205ZM15 30C6.7155 30 0 23.2845 0 15C0 6.7155 6.7155 0 15 0C23.2845 0 30 6.7155 30 15C30 23.2845 23.2845 30 15 30Z" fill="#76CE37"/>
</svg>
