<svg width="205" height="150" viewBox="0 0 205 150" fill="none" xmlns="http://www.w3.org/2000/svg">
<path d="M50.2962 0.115699H88.9047V34.0705H56.9279C45.8969 34.0705 44.5837 44.2226 45.306 49.2987C44.5706 64.3897 60.977 65.6473 69.2722 64.3897V97.3155L43.8614 149.997H0L31.1889 92.1709C15.1493 86.0838 10.0107 73.1094 8.4186 69.0896L8.40459 69.0542C6.82873 65.0756 5.05589 51.2194 5.38419 46.6235C5.71249 42.0276 4.59626 24.2613 16.2839 11.2968C25.634 0.925127 42.8546 -0.478795 50.2962 0.115699Z" fill="#FFB500"/>
<path fill-rule="evenodd" clip-rule="evenodd" d="M89.0361 0.118797H163.627C177 -0.818675 203.969 5.51041 204.862 38.3265C205.978 79.3466 200.331 86.0004 186.871 92.9285C183.172 94.5062 171.637 97.593 155.091 97.3186C138.544 97.0443 104.16 97.2043 89.0361 97.3186V0.118797ZM89.0361 114.262H123.18V150H89.0361V114.262ZM122.917 33.9846V64.1666H149.641C160.212 64.1666 166.255 63.6139 166.581 50.4475C166.965 34.9334 156.554 34.3478 150.555 34.0104C150.401 34.0017 150.249 33.9932 150.1 33.9846H122.917Z" fill="white"/>
<path d="M135.549 126.38H130.893V138.867H128.521V126.38H123.955V124.371H135.549V126.38Z" fill="white"/>
<path d="M142.551 135.236L145.783 124.371H148.322L142.743 141.104C141.88 143.516 140.507 144.722 138.627 144.722L138.178 144.681L137.293 144.507V142.498L137.934 142.551C138.738 142.551 139.362 142.382 139.806 142.042C140.26 141.703 140.631 141.082 140.922 140.18L141.448 138.706L136.498 124.371H139.088L142.551 135.236Z" fill="white"/>
<path d="M149.617 136.844L150.438 135.785C151.361 134.535 151.887 132.659 152.015 130.158L152.233 124.371H161.172V136.844H162.954V143.127H160.582V138.867H150.899V143.127H148.527L148.54 136.844H149.617ZM152.426 136.844H158.799V126.662H154.529L154.388 130.118C154.242 133.003 153.588 135.245 152.426 136.844Z" fill="white"/>
<path d="M174.56 124.371H176.933V138.867H174.56V128.296L168.161 138.867H165.789V124.371H168.161V134.955L174.56 124.371Z" fill="white"/>
<path d="M191.348 124.371V138.867H188.962V133.227H185.384L182.114 138.867H179.549L183.037 132.851C182.148 132.512 181.464 131.989 180.985 131.284C180.515 130.569 180.28 129.739 180.28 128.792C180.28 127.47 180.755 126.407 181.704 125.603C182.653 124.791 183.922 124.38 185.512 124.371H191.348ZM182.665 128.819C182.665 129.524 182.896 130.096 183.358 130.534C183.82 130.962 184.431 131.181 185.192 131.19H188.962V126.38H185.551C184.67 126.38 183.969 126.608 183.448 127.064C182.926 127.51 182.665 128.095 182.665 128.819Z" fill="white"/>
<path d="M114.914 137.112C115.76 137.112 116.5 136.844 117.132 136.308C117.765 135.772 118.116 135.102 118.184 134.298H120.428C120.385 135.129 120.112 135.919 119.607 136.67C119.103 137.42 118.428 138.018 117.581 138.465C116.743 138.911 115.854 139.135 114.914 139.135C113.024 139.135 111.519 138.478 110.399 137.165C109.288 135.843 108.732 134.039 108.732 131.753V131.337C108.732 129.926 108.98 128.671 109.476 127.573C109.972 126.474 110.682 125.621 111.605 125.014C112.537 124.406 113.636 124.103 114.901 124.103C116.457 124.103 117.748 124.589 118.774 125.563C119.808 126.537 120.36 127.8 120.428 129.355H118.184C118.116 128.417 117.774 127.649 117.158 127.05C116.551 126.443 115.799 126.139 114.901 126.139C113.695 126.139 112.759 126.595 112.092 127.506C111.434 128.408 111.105 129.716 111.105 131.431V131.9C111.105 133.57 111.434 134.856 112.092 135.759C112.751 136.661 113.691 137.112 114.914 137.112Z" fill="#2A2A2A"/>
</svg>
