<svg width="277" height="304" viewBox="0 0 277 304" fill="none" xmlns="http://www.w3.org/2000/svg">
<g filter="url(#filter0_d)">
<path d="M94.7696 64.4905L70.3923 99.11L76.8369 130.03L49.9377 112.852L25 123.423L25 155.4L49.9377 183.941L72.0735 185.526L86.3636 179.977L90.2864 205.347L182.472 206.932L191.719 169.142L215.535 165.706L231.507 140.336L235.43 115.23L203.207 109.417L194.521 116.552L193.12 102.545L249.159 70.3045V45.9916L246.918 39.1205L237.391 25.907L205.448 30.1353L182.472 62.6406L173.225 52.3341L144.925 45.9916L98.4122 60.5264L94.7696 64.4905Z" fill="#71B220"/>
<path d="M191.719 166.763V169.142L206.009 167.027L191.719 166.763Z" fill="#578417"/>
<path d="M164.82 202.44C165.268 202.228 168.742 178.567 170.424 166.763C169.751 186.214 167.715 198.652 166.781 202.44C165.94 202.528 164.371 202.651 164.82 202.44Z" fill="#578417"/>
<path d="M137.64 202.44C138.985 199.903 141.003 187.464 141.843 181.562C143.188 192.556 143.151 200.061 142.964 202.44H137.64Z" fill="#578417"/>
<path d="M113.823 202.44C113.151 201.594 113.169 185.35 113.263 177.334C114.16 191.71 116.065 200.061 116.905 202.44C116.158 202.792 114.496 203.285 113.823 202.44Z" fill="#578417"/>
<path d="M85.8034 177.863C91.8557 188.645 101.028 199.092 104.857 202.968H90.2865L86.3638 179.977L72.0736 185.526L56.6626 184.469L70.3924 183.941L85.8034 177.863Z" fill="#578417"/>
<path d="M28.3625 150.643L54.7012 183.941H50.2181L25.0001 155.664V122.894C25.0001 128.18 27.4285 144.212 28.3625 150.643Z" fill="#578417"/>
<path d="M70.1122 99.6385L77.3974 89.3319L76.2766 129.237L70.1122 99.6385Z" fill="#578417"/>
<path d="M188.076 201.647H89.7262V220.939H95.05L107.099 273H175.747L184.994 220.939H188.076V201.647Z" fill="#3E3E3E"/>
<path d="M99.8132 109.681L108.219 96.4672L125.872 95.9387L134.838 103.074L141.563 95.9387L155.853 96.4672L170.143 110.738L163.138 125.537L146.606 129.501L140.442 124.216L127.273 134.786L111.301 132.408L99.8132 121.044V109.681Z" fill="white"/>
<path d="M116.345 213.803C115.449 212.746 115.972 206.316 116.345 203.233H177.148C175 204.906 169.023 209.099 162.298 212.482C153.892 216.71 147.447 216.182 141.283 217.239C135.119 218.296 136.52 215.125 126.993 216.182C117.466 217.239 117.466 215.125 116.345 213.803Z" fill="#353535"/>
<path d="M161.457 235.474C166.613 238.011 177.242 239.173 181.912 239.438L184.994 221.732H162.298L99.5332 224.903L109.34 272.736H175.467L177.148 259.522H171.544H143.524C140.162 258.994 132.989 257.725 131.196 256.88C128.954 255.822 126.993 250.801 124.751 249.744C122.51 248.687 120.828 247.102 115.785 247.102C110.741 247.102 110.461 249.744 109.34 249.744C108.444 249.744 108.406 247.982 108.5 247.102C108.126 245.956 107.995 243.93 110.461 244.987C112.927 246.044 116.158 245.956 117.466 245.78C120.604 246.414 125.872 239.173 128.114 235.474C134.838 237.376 141.937 236.266 144.645 235.474C148.101 234.417 156.302 232.937 161.457 235.474Z" fill="#353535"/>
<path d="M98.132 220.146L93.0884 203.233H91.127H89.1656V220.146H98.132Z" fill="#1F1F1F"/>
<path d="M158.095 221.74H94.7696L106.818 272.736H111.301L102.335 226.034L158.095 221.74Z" fill="#1F1F1F"/>
<path d="M139.321 237.852H181.912L177.709 260.579H139.321C136.613 260.139 131.196 257.25 131.196 249.216C130.971 241.182 136.519 238.293 139.321 237.852Z" fill="#FDB601"/>
<path d="M192.559 90.1247L248.319 76.1184L250 45.7273L239.913 23L205.728 23L178.269 71.6258M192.559 90.1247L194.801 117.08L203.767 109.416L224.502 117.08V143.772L211.332 165.442L190.317 159.099L178.269 201.911H188.916V221.467H184.994M192.559 90.1247L178.269 71.6258M184.994 221.467L175.467 273H106.538L94.4894 221.467M184.994 221.467H94.4894M94.4894 221.467H89.1656V201.911H97.5715L85.8032 171.52L71.513 183.941H44.6139L26.6812 159.099L35.6475 123.423L54.1407 114.702L76.8368 129.765L67.8704 88.5391L97.5715 61.5835L151.37 52.0698L178.269 71.6258M108.219 95.9387L100.093 109.416V121.309L111.582 133.201L128.113 135.315L140.442 125.537L146.606 130.822L163.979 125.537L170.704 109.416L156.133 95.9387H140.442L134.278 102.545L126.152 95.9387H108.219Z" stroke="black" stroke-width="3"/>
<path d="M97.2916 201.911H179.11" stroke="black" stroke-width="3"/>
<path d="M122.229 117.873C122.229 115.97 125.031 114.085 126.432 113.381C128.898 112.535 129.794 112.852 131.195 113.116C132.596 113.381 134.558 114.966 135.398 116.816C135.679 118.402 135.959 122.207 134.838 124.744C133.437 127.915 131.195 127.387 129.514 127.387C128.169 127.387 126.339 126.154 125.591 125.537C124.751 124.832 122.958 123.106 122.509 121.837C121.949 120.252 122.229 120.252 122.229 117.873Z" fill="black"/>
<path d="M140.162 115.495C140.835 113.592 141.999 112.313 144.085 111.531C147.503 110.249 151.931 112.588 152.771 114.966C153.612 117.345 153.892 118.666 153.051 120.78C152.211 122.894 147.728 123.423 147.728 123.423C144.847 123.635 142.124 121.661 141.003 120.516C140.442 119.635 139.49 117.397 140.162 115.495Z" fill="black"/>
<path d="M48.5369 138.751C49.7511 144.036 54.8694 157.302 65.629 168.085C62.2666 164.121 54.1408 152.704 48.5369 138.751Z" fill="#578417"/>
<path d="M215.816 127.387C215.069 129.589 212.173 134.469 206.569 136.372C208.25 135.491 212.453 132.461 215.816 127.387Z" fill="#578417"/>
<path d="M227.304 46.2558C223.568 51.4531 213.35 63.4334 202.366 69.7759C207.036 65.988 218.562 55.981 227.304 46.2558Z" fill="#578417"/>
<path d="M107.939 66.3404C106.912 68.3665 105.025 74.3214 105.697 81.9324C105.791 79.0254 106.37 71.8372 107.939 66.3404Z" fill="#578417"/>
<path d="M149.689 67.1332C152.117 68.3665 156.75 74.0042 155.853 86.6892C157.067 80.9634 157.534 69.0359 149.689 67.1332Z" fill="#578417"/>
<path d="M158.648 256.88V251.543H156.017L153.182 256.88H149.689L153.042 250.568C151.424 249.727 150.616 248.423 150.616 246.654C150.616 245.204 151.119 244.083 152.125 243.29C153.132 242.497 154.537 242.094 156.341 242.08H161.893V256.88H158.648ZM153.85 246.878C153.85 247.705 154.062 248.304 154.486 248.677C154.918 249.05 155.561 249.236 156.416 249.236H158.648V244.55L156.416 244.55C154.706 244.55 153.85 245.326 153.85 246.878Z" fill="black"/>
<path d="M166.4 251.665V256.88H163.166V242.08H169.29C170.468 242.08 171.503 242.284 172.395 242.69C173.293 243.097 173.983 243.676 174.465 244.428C174.946 245.174 175.187 246.024 175.187 246.98C175.187 248.43 174.659 249.575 173.602 250.415C172.553 251.249 171.097 251.665 169.236 251.665H166.4ZM166.4 249.195H169.29C170.145 249.195 170.795 249.006 171.241 248.626C171.694 248.247 171.92 247.705 171.92 247C171.92 246.275 171.694 245.689 171.241 245.241C170.788 244.794 170.163 244.564 169.365 244.55H166.4V249.195Z" fill="black"/>
<path d="M114.664 151.964C116.719 153.902 123.35 161.214 134.838 159.628C122.229 157.178 118.251 154.713 114.664 151.964Z" fill="black"/>
<path d="M120.828 165.178C115 163.698 114.29 155.752 114.664 151.964C122.061 158.729 131.196 159.892 134.838 159.628C132.597 162.094 126.656 166.658 120.828 165.178Z" fill="#7B1C1C" stroke="black" stroke-width="0.6"/>
<path d="M115.224 158.835C115.971 160.949 118.867 165.23 124.471 165.442C121.949 165.882 116.569 165.178 115.224 158.835Z" fill="black"/>
</g>
<defs>
<filter id="filter0_d" x="0" y="0.5" width="276.518" height="303" filterUnits="userSpaceOnUse" color-interpolation-filters="sRGB">
<feFlood flood-opacity="0" result="BackgroundImageFix"/>
<feColorMatrix in="SourceAlpha" type="matrix" values="0 0 0 0 0 0 0 0 0 0 0 0 0 0 0 0 0 0 127 0"/>
<feOffset dy="4"/>
<feGaussianBlur stdDeviation="12.5"/>
<feColorMatrix type="matrix" values="0 0 0 0 0 0 0 0 0 0 0 0 0 0 0 0 0 0 0.25 0"/>
<feBlend mode="normal" in2="BackgroundImageFix" result="effect1_dropShadow"/>
<feBlend mode="normal" in="SourceGraphic" in2="effect1_dropShadow" result="shape"/>
</filter>
</defs>
</svg>
