<svg width="28" height="28" viewBox="0 0 28 28" fill="none" xmlns="http://www.w3.org/2000/svg">
<path d="M26.4454 16.2299C26.5826 15.4766 26.6563 14.7065 26.6563 13.9364C26.6563 12.2288 26.3215 10.5714 25.6619 9.01451C25.0257 7.50781 24.1117 6.15514 22.9498 4.9933C21.7977 3.83824 20.432 2.91827 18.9286 2.2846C17.3684 1.625 15.7143 1.29018 14.0068 1.29018C13.2032 1.29018 12.3963 1.36719 11.6128 1.51786C10.5287 0.943381 9.32072 0.642253 8.09381 0.640625C6.09492 0.640625 4.21323 1.42076 2.80028 2.83371C2.10306 3.52735 1.55025 4.35232 1.17382 5.26093C0.797388 6.16953 0.604804 7.14374 0.6072 8.12723C0.6072 9.39956 0.935325 10.6518 1.54805 11.7567C1.42416 12.4732 1.3572 13.2065 1.3572 13.9364C1.3572 15.644 1.69202 17.3013 2.35162 18.8583C2.98778 20.365 3.89849 21.7176 5.06033 22.8795C6.22216 24.0413 7.57483 24.952 9.08153 25.5882C10.6418 26.2478 12.2958 26.5826 14.0034 26.5826C14.7467 26.5826 15.49 26.5156 16.2199 26.385C17.3416 27.0179 18.6072 27.356 19.903 27.356C21.9018 27.356 23.7835 26.5792 25.1965 25.163C26.6128 23.75 27.3896 21.8683 27.3896 19.8694C27.3929 18.5971 27.0648 17.3415 26.4454 16.2299ZM23.4956 23.4621C22.5347 24.4263 21.2657 24.9487 19.9063 24.9487C19.0324 24.9487 18.1719 24.721 17.4085 24.2891L16.6552 23.8638L15.8014 24.0145C15.2054 24.1217 14.6027 24.1752 14.0068 24.1752C12.6206 24.1752 11.2847 23.904 10.019 23.3683C8.80363 22.856 7.70876 22.1194 6.76457 21.1752C5.8299 20.2438 5.08508 19.1396 4.57149 17.9241C4.03577 16.6618 3.76791 15.3259 3.76791 13.9397C3.76791 13.3571 3.82149 12.7612 3.92193 12.1719L4.06925 11.3315L3.65407 10.5848C3.23532 9.83336 3.01521 8.98749 3.01457 8.12723C3.01457 6.76786 3.54024 5.49888 4.50117 4.53795C5.46546 3.57701 6.73443 3.05134 8.09381 3.05134C8.92758 3.05359 9.74821 3.25932 10.4844 3.65067L11.2344 4.04576L12.0648 3.88505C12.6976 3.76451 13.3505 3.70089 14.0068 3.70089C15.3929 3.70089 16.7289 3.9721 17.9911 4.50446C19.2132 5.02009 20.3047 5.7567 21.2456 6.69755C22.1898 7.63839 22.9264 8.73326 23.442 9.95201C23.9777 11.2143 24.2456 12.5502 24.2456 13.9364C24.2456 14.5525 24.1887 15.1752 24.0748 15.7946L23.9175 16.6484L24.3393 17.4051C24.7612 18.1585 24.9822 19.0123 24.9822 19.8728C24.9822 21.2355 24.4565 22.5011 23.4956 23.4621ZM16.3907 12.4665L13.4309 11.8103C12.3059 11.5525 11.0101 11.2143 11.0101 10.1529C11.0101 9.09152 11.9175 8.34822 13.5581 8.34822C16.8628 8.34822 16.5614 10.6183 18.2021 10.6183C19.0659 10.6183 19.8226 10.1094 19.8226 9.23884C19.8226 7.20313 16.5614 5.67299 13.7958 5.67299C10.7925 5.67299 7.59492 6.94866 7.59492 10.3438C7.59492 11.9777 8.17751 13.7188 11.3985 14.5257L15.3963 15.5234C16.605 15.8214 16.9097 16.5011 16.9097 17.1172C16.9097 18.1384 15.8951 19.1362 14.057 19.1362C10.4677 19.1362 10.9666 16.3739 9.0447 16.3739C8.18086 16.3739 7.55474 16.9699 7.55474 17.817C7.55474 19.471 9.56367 21.6808 14.057 21.6808C18.3326 21.6808 20.4521 19.6217 20.4521 16.8594C20.4521 15.0815 19.6318 13.1897 16.3907 12.4665Z" fill="#76CE37"/>
</svg>
