<svg width="30" height="28" viewBox="0 0 30 28" fill="none" xmlns="http://www.w3.org/2000/svg">
<path d="M27.7731 0.303051C27.4027 0.33 27.0392 0.4169 26.6966 0.560359H26.692C26.3631 0.690744 24.7997 1.34844 22.4228 2.34536L13.9051 5.93267C7.79314 8.50574 1.78506 11.0396 1.78506 11.0396L1.8566 11.0119C1.8566 11.0119 1.44237 11.1481 1.00968 11.4446C0.742363 11.6147 0.512339 11.8373 0.333523 12.0988C0.121216 12.4104 -0.0495535 12.8869 0.013908 13.3796C0.117754 14.2127 0.657754 14.7123 1.04545 14.9881C1.43775 15.2673 1.8116 15.3977 1.8116 15.3977H1.82083L7.45506 17.2957C7.70775 18.1069 9.17198 22.9207 9.52391 24.0296C9.7316 24.6919 9.93352 25.1061 10.1862 25.4223C10.3085 25.5838 10.4516 25.7188 10.6235 25.8273C10.7129 25.8793 10.8082 25.9203 10.9074 25.9496L10.8497 25.9357C10.867 25.9404 10.8808 25.9542 10.8935 25.9588C10.9397 25.9715 10.9708 25.9761 11.0297 25.9854C11.9216 26.2554 12.6381 25.7015 12.6381 25.7015L12.6785 25.6692L16.0051 22.6404L21.5804 26.9177L21.7074 26.9719C22.8693 27.4819 24.0462 27.1981 24.6681 26.6973C25.2947 26.1931 25.5381 25.5481 25.5381 25.5481L25.5785 25.4442L29.887 3.37228C30.0093 2.82767 30.0404 2.31767 29.9054 1.82267C29.7662 1.3217 29.4448 0.890829 29.0043 0.61459C28.6344 0.389722 28.2055 0.281184 27.7731 0.303051ZM27.6566 2.66844C27.652 2.74113 27.6658 2.73305 27.6335 2.87267V2.88536L23.3654 24.7277C23.347 24.7588 23.3158 24.8269 23.2304 24.895C23.1404 24.9665 23.0689 25.0115 22.6939 24.8627L15.8747 19.6346L11.7554 23.3892L12.6208 17.8623L23.7624 7.47767C24.2216 7.05074 24.0681 6.96074 24.0681 6.96074C24.1004 6.4369 23.3747 6.80728 23.3747 6.80728L9.32544 15.5107L9.32083 15.4877L2.58698 13.2204V13.2157L2.56968 13.2123C2.58148 13.2084 2.59304 13.2037 2.60429 13.1984L2.64122 13.18L2.67698 13.1673C2.67698 13.1673 8.68968 10.6334 14.8016 8.06036C17.8616 6.77151 20.9447 5.47344 23.3158 4.4719C25.687 3.47613 27.4397 2.74574 27.5389 2.70651C27.6335 2.66959 27.5885 2.66959 27.6566 2.66959V2.66844Z" fill="#76CE37"/>
</svg>
